<svg width="27" height="30" viewBox="0 0 27 30" fill="none" xmlns="http://www.w3.org/2000/svg">
<path d="M25.3108 9.11711C25.2862 8.56009 24.8041 8.11939 24.218 8.11939H19.7808V6.69438C19.7808 3.00324 16.7765 0 13.0854 0C9.39428 0 6.39216 3.00324 6.39216 6.69438V8.11939H1.9539C1.36781 8.11939 0.885722 8.56009 0.861109 9.11711L0.000956294 28.7215C-0.02477 29.3132 0.471858 29.8065 1.09376 29.8065H25.0781C25.7001 29.8065 26.1967 29.3132 26.1709 28.7215L25.3108 9.11711ZM8.43684 6.69438C8.43684 4.13072 10.5218 2.04467 13.0854 2.04467C15.649 2.04467 17.7351 4.13072 17.7351 6.69438V8.11939H8.43684V6.69438Z" fill="#919191"/>
</svg>
