<svg width="29" height="29" viewBox="0 0 29 29" fill="none" xmlns="http://www.w3.org/2000/svg">
<path d="M27.7292 11.2208L14.6649 0.229018C14.3036 -0.0763394 13.7734 -0.0763394 13.4099 0.229018L0.346741 11.2208C0.126389 11.4065 0 11.6794 0 11.9668V27.3656C0 27.9047 0.435089 28.341 0.975342 28.341H9.0119C9.55103 28.341 9.98726 27.9047 9.98726 27.3656V19.9162V17.7966C9.98726 17.2586 10.4235 16.8224 10.9615 16.8224H17.1156C17.6525 16.8224 18.0887 17.2586 18.0887 17.7966V19.9162V27.3656C18.0887 27.9047 18.526 28.341 19.0629 28.341H27.1017C27.6386 28.341 28.0748 27.9047 28.0748 27.3656V11.9668C28.0748 11.6794 27.9484 11.4065 27.7292 11.2208Z" fill="#919191"/>
</svg>
