<svg width="27" height="26" viewBox="0 0 27 26" fill="none" xmlns="http://www.w3.org/2000/svg">
<path d="M13.1202 8.55927C10.6917 8.55927 8.71875 10.5332 8.71875 12.9607C8.71875 15.3891 10.6917 17.3621 13.1202 17.3621C15.5467 17.3621 17.5206 15.3891 17.5206 12.9607C17.5206 10.5332 15.5467 8.55927 13.1202 8.55927Z" fill="#919191"/>
<path d="M18.814 0H7.42655C3.3324 0 0 3.33041 0 7.42555V18.4938C0 22.5879 3.3324 25.9183 7.42655 25.9183H18.814C22.9082 25.9183 26.2396 22.5879 26.2396 18.4938V7.42555C26.2396 3.33041 22.9082 0 18.814 0ZM13.1208 19.7607C9.36871 19.7607 6.31774 16.7117 6.31774 12.9597C6.31774 9.2086 9.36871 6.15763 13.1208 6.15763C16.8708 6.15763 19.9208 9.2086 19.9208 12.9597C19.9208 16.7117 16.8708 19.7607 13.1208 19.7607ZM20.1615 7.62643C19.2784 7.62643 18.5624 6.90944 18.5624 6.02537C18.5624 5.14329 19.2784 4.4263 20.1615 4.4263C21.0455 4.4263 21.7626 5.14329 21.7626 6.02537C21.7626 6.90944 21.0455 7.62643 20.1615 7.62643Z" fill="#919191"/>
</svg>
