<svg width="124" height="33" viewBox="0 0 124 33" fill="none" xmlns="http://www.w3.org/2000/svg">
<mask id="mask0_25_1175" style="mask-type:alpha" maskUnits="userSpaceOnUse" x="0" y="0" width="124" height="33">
<rect width="124" height="32.3677" fill="#D9D9D9"/>
</mask>
<g mask="url(#mask0_25_1175)">
<path d="M58.7023 27.4105H42.2227C40.3557 27.4105 38.8413 25.8962 38.8413 24.0292C38.8413 22.1605 40.3557 20.6478 42.2227 20.6478H58.7023C60.5693 20.6478 62.0837 22.1605 62.0837 24.0292C62.0837 25.8962 60.5693 27.4105 58.7023 27.4105Z" fill="white"/>
<path d="M20.0494 13.3049L17.4659 7.0913C17.2855 6.67533 16.8679 6.38123 16.3837 6.38123C15.997 6.38123 15.6574 6.56809 15.4429 6.85407L12.3767 14.2262L14.9765 20.4771C15.1634 20.8785 15.5696 21.1579 16.0425 21.1579C16.4893 21.1579 16.8728 20.911 17.0759 20.5454L20.0673 13.3487L20.0494 13.3049Z" fill="white"/>
<path d="M75 24.8416C75.1966 25.061 75.2941 25.3437 75.2941 25.6882C75.2941 26.0327 75.1641 26.3154 74.9058 26.5348C74.6474 26.7541 74.3143 26.8646 73.9065 26.8646H73.4824C72.7154 26.8646 72.0135 26.6648 71.3781 26.2634C70.7428 25.8637 70.2456 25.3193 69.8849 24.6304C69.5241 23.9398 69.3438 23.1648 69.3438 22.3019V16.493H67.6376C67.3078 16.493 67.0413 16.3987 66.8382 16.2102C66.6335 16.0234 66.5327 15.7878 66.5327 15.505C66.5327 15.1931 66.6335 14.9412 66.8382 14.7527C67.0413 14.5642 67.3078 14.47 67.6376 14.47H69.3438V13.0368C69.3438 12.6924 69.4543 12.4096 69.6736 12.1903C69.893 11.9709 70.1757 11.8604 70.5202 11.8604C70.8647 11.8604 71.1474 11.9709 71.3668 12.1903C71.5861 12.4096 71.6966 12.6924 71.6966 13.0368V14.47H73.6952C74.0234 14.47 74.2899 14.5642 74.4947 14.7527C74.6978 14.9412 74.8001 15.1931 74.8001 15.505C74.8001 15.7878 74.6978 16.0234 74.4947 16.2102C74.2899 16.3987 74.0234 16.493 73.6952 16.493H71.6966V22.3019C71.6966 22.9291 71.8688 23.454 72.2133 23.8781C72.5578 24.3005 72.9819 24.5118 73.4824 24.5118H74.2834C74.5645 24.5118 74.8034 24.6223 75 24.8416Z" fill="white"/>
<path d="M86.3903 14.7657C87.3718 15.3376 88.1484 16.1224 88.7188 17.1169C89.2907 18.1129 89.5784 19.2227 89.5784 20.4446V25.6898C89.5784 26.0342 89.463 26.3202 89.2355 26.5477C89.008 26.7752 88.7237 26.8889 88.3776 26.8889C88.0347 26.8889 87.7471 26.7752 87.5196 26.5477C87.2921 26.3202 87.18 26.0342 87.18 25.6898V24.8188C86.6292 25.4932 85.963 26.018 85.1814 26.395C84.395 26.7703 83.5484 26.9588 82.6417 26.9588C81.5124 26.9588 80.4887 26.6761 79.5723 26.1122C78.6559 25.5484 77.9344 24.7685 77.4079 23.7724C76.8815 22.778 76.6199 21.6682 76.6199 20.4446C76.6199 19.2227 76.901 18.1129 77.4664 17.1169C78.0303 16.1224 78.8102 15.3376 79.8079 14.7657C80.8023 14.1937 81.9024 13.9077 83.1097 13.9077C84.317 13.9077 85.4105 14.1937 86.3903 14.7657ZM85.2383 24.2664C85.8736 23.8829 86.3708 23.3581 86.7315 22.6902C87.0923 22.024 87.2726 21.2766 87.2726 20.4446C87.2726 19.6143 87.0923 18.862 86.7315 18.1877C86.3708 17.5133 85.8736 16.9836 85.2383 16.6002C84.6046 16.2151 83.8945 16.0233 83.1097 16.0233C82.3281 16.0233 81.6164 16.2151 80.9827 16.6002C80.349 16.9836 79.8453 17.5133 79.4764 18.1877C79.1092 18.862 78.924 19.6143 78.924 20.4446C78.924 21.2766 79.1092 22.024 79.4764 22.6902C79.8453 23.3581 80.349 23.8829 80.9827 24.2664C81.6164 24.6515 82.3281 24.8432 83.1097 24.8432C83.8945 24.8432 84.6046 24.6515 85.2383 24.2664Z" fill="white"/>
<path d="M102.012 14.7657C103.006 15.3376 103.788 16.1224 104.352 17.1169C104.915 18.1129 105.198 19.2227 105.198 20.4446C105.198 21.6682 104.935 22.778 104.41 23.7724C103.885 24.7685 103.164 25.5484 102.247 26.1122C101.329 26.6761 100.307 26.9588 99.178 26.9588C98.2681 26.9588 97.4215 26.7703 96.6383 26.395C95.8535 26.018 95.1873 25.4932 94.6381 24.8188V31.1689C94.6381 31.5296 94.5292 31.8188 94.3098 32.0382C94.0905 32.2576 93.7996 32.3681 93.4389 32.3681C93.0944 32.3681 92.8085 32.2576 92.581 32.0382C92.3535 31.8188 92.2397 31.5296 92.2397 31.1689V20.4446C92.2397 19.2227 92.5257 18.1129 93.0993 17.1169C93.6713 16.1224 94.4463 15.3376 95.4262 14.7657C96.406 14.1937 97.4995 13.9077 98.7068 13.9077C99.9141 13.9077 101.016 14.1937 102.012 14.7657ZM100.835 24.2664C101.471 23.8829 101.973 23.3581 102.34 22.6902C102.709 22.024 102.893 21.2766 102.893 20.4446C102.893 19.6143 102.709 18.862 102.34 18.1877C101.973 17.5133 101.471 16.9836 100.835 16.6002C100.2 16.2151 99.4916 16.0233 98.7068 16.0233C97.9236 16.0233 97.2135 16.2151 96.5782 16.6002C95.9445 16.9836 95.4457 17.5133 95.0866 18.1877C94.7242 18.862 94.5455 19.6143 94.5455 20.4446C94.5455 21.2766 94.7242 22.024 95.0866 22.6902C95.4457 23.3581 95.9445 23.8829 96.5782 24.2664C97.2135 24.6515 97.9236 24.8432 98.7068 24.8432C99.4916 24.8432 100.2 24.6515 100.835 24.2664Z" fill="white"/>
<path d="M119.782 19.8613C119.783 19.8548 119.782 19.8467 119.782 19.8386C119.736 18.7596 119.504 17.7944 119.085 16.9398C118.615 15.9843 117.941 15.2401 117.062 14.7055C116.186 14.1742 115.141 13.9077 113.935 13.9077C112.713 13.9077 111.62 14.1856 110.655 14.7413C109.69 15.2986 108.937 16.0737 108.398 17.0697C107.857 18.0642 107.587 19.1902 107.587 20.4463C107.587 21.699 107.871 22.8186 108.443 23.8065C109.015 24.7945 109.811 25.5679 110.832 26.1252C111.849 26.681 113.003 26.9588 114.29 26.9588C115.008 26.9588 115.767 26.8256 116.558 26.5591C117.349 26.291 118.012 25.9465 118.545 25.524C118.795 25.3355 118.92 25.1016 118.92 24.8188C118.92 24.5215 118.781 24.2534 118.498 24.0194C118.324 23.8634 118.09 23.7838 117.793 23.7838C117.495 23.7838 117.235 23.8699 117.015 24.0438C116.686 24.294 116.267 24.5052 115.757 24.6775C115.247 24.8513 114.758 24.9358 114.29 24.9358C113.097 24.9358 112.089 24.6011 111.266 23.9235C110.443 23.2492 109.945 22.3669 109.774 21.2685H118.492C119.202 21.2685 119.782 20.6932 119.788 19.9848V19.9718C119.788 19.9328 119.785 19.897 119.782 19.8613ZM111.149 16.8699C111.86 16.2427 112.79 15.9291 113.935 15.9291C114.97 15.9291 115.809 16.2427 116.451 16.8699C117.024 17.4288 117.398 18.1568 117.572 19.057C117.595 19.1626 117.612 19.2731 117.627 19.3852H109.797C109.985 18.3355 110.434 17.4971 111.149 16.8699Z" fill="white"/>
<path d="M122.321 6.0156C122.836 6.31783 123.244 6.7273 123.546 7.24239C123.849 7.75748 124 8.31969 124 8.93065C124 9.55298 123.847 10.1233 123.543 10.64C123.238 11.1584 122.827 11.5662 122.312 11.8636C121.796 12.1593 121.236 12.3072 120.633 12.3072C120.016 12.3072 119.45 12.1593 118.935 11.8636C118.42 11.5662 118.01 11.16 117.708 10.6449C117.406 10.1298 117.255 9.55785 117.255 8.93065C117.255 8.31969 117.404 7.75748 117.703 7.24239C118.004 6.7273 118.41 6.31783 118.925 6.0156C119.442 5.71337 120.011 5.56226 120.633 5.56226C121.242 5.56226 121.805 5.71337 122.321 6.0156ZM121.957 11.2364C122.368 10.9943 122.695 10.6693 122.934 10.2614C123.173 9.85196 123.293 9.40511 123.293 8.92252C123.293 8.4383 123.171 7.99146 122.929 7.58361C122.688 7.17414 122.362 6.84917 121.954 6.60706C121.545 6.36495 121.098 6.24471 120.615 6.24471C120.131 6.24471 119.684 6.36495 119.276 6.60706C118.867 6.84917 118.542 7.17414 118.3 7.58361C118.058 7.99146 117.937 8.4383 117.937 8.92252C117.937 9.40511 118.058 9.85196 118.296 10.2614C118.535 10.6693 118.859 10.9943 119.266 11.2364C119.676 11.4785 120.124 11.5987 120.615 11.5987C121.098 11.5987 121.546 11.4785 121.957 11.2364ZM122.032 10.3638C122.078 10.445 122.1 10.5198 122.1 10.5897C122.1 10.6693 122.071 10.7359 122.014 10.7879C121.956 10.8399 121.879 10.8659 121.78 10.8659C121.712 10.8659 121.649 10.8513 121.59 10.822C121.533 10.7928 121.489 10.7554 121.462 10.7099L120.667 9.37099H120.589H120.045V10.5377C120.045 10.6352 120.014 10.7148 119.954 10.7749C119.894 10.835 119.812 10.8659 119.708 10.8659C119.604 10.8659 119.52 10.835 119.457 10.7749C119.393 10.7148 119.362 10.6352 119.362 10.5377V7.15139C119.362 7.0539 119.396 6.97428 119.466 6.91416C119.535 6.85242 119.624 6.82317 119.734 6.82317H120.589C121.003 6.82317 121.345 6.94178 121.613 7.17739C121.879 7.413 122.014 7.71523 122.014 8.08408C122.014 8.32619 121.954 8.54392 121.832 8.73566C121.712 8.92902 121.548 9.08339 121.34 9.19875L122.032 10.3638ZM120.045 8.76653H120.641C120.848 8.76653 121.013 8.70479 121.137 8.5813C121.26 8.4578 121.324 8.29207 121.324 8.08408C121.324 7.87609 121.26 7.71523 121.137 7.59986C121.013 7.48612 120.848 7.42763 120.641 7.42763H120.045V8.76653Z" fill="white"/>
<path d="M58.7023 17.0876H42.2227C40.3557 17.0876 38.8413 15.5732 38.8413 13.7062C38.8413 11.8376 40.3557 10.3248 42.2227 10.3248H58.7023C60.5693 10.3248 62.0837 11.8376 62.0837 13.7062C62.0837 15.5732 60.5693 17.0876 58.7023 17.0876Z" fill="white"/>
<path d="M46.4882 0.00195312H39.186C36.8348 0.128694 34.8394 1.59272 33.9441 3.64657C33.9246 3.69045 33.9067 3.73594 33.8872 3.77981L29.5618 14.1872L32.1762 20.4788C32.3647 20.8785 32.7709 21.158 33.2438 21.158C33.6305 21.158 33.9701 20.9727 34.1862 20.6835L39.0462 8.98758L39.0479 8.98433L39.1518 8.73409L39.7498 7.29769L39.9708 6.76473V6.76311L39.9903 6.71599C39.9952 6.69974 40.0049 6.68186 40.013 6.65911C40.0309 6.61362 40.0569 6.55512 40.0878 6.48525C40.5021 5.53144 41.9743 2.39216 43.8283 1.20437C44.8178 0.567414 45.9162 0.0620739 47.1642 0.00195312H46.4882Z" fill="white"/>
<path d="M58.7022 0.00195312H48.2347C46.9852 0.0620739 45.8884 0.567414 44.8988 1.20437C43.0448 2.39216 41.5727 5.53144 41.1583 6.48525C41.1274 6.55512 41.1014 6.61362 41.0836 6.65911C41.0754 6.68186 41.0657 6.69974 41.0608 6.71599L41.0413 6.76311V6.76473L40.9341 7.02309C41.3322 6.85735 41.7676 6.76473 42.2242 6.76473H58.7022C60.5708 6.76473 62.0836 5.25196 62.0836 3.38334C62.0836 1.51635 60.5708 0.00195312 58.7022 0.00195312Z" fill="#DB291A"/>
<path d="M15.6316 22.1525C15.1588 22.1525 14.7525 21.873 14.5657 21.4717L6.50625 2.08517C5.78805 0.36117 3.80894 -0.456148 2.08493 0.260427C0.360925 0.978627 -0.456392 2.95774 0.260183 4.68174L8.84283 25.3276C9.38392 26.6275 10.6416 27.4123 11.9675 27.4123C12.3997 27.4123 12.8401 27.3278 13.2642 27.1523C14.0961 26.8062 14.6957 26.1562 15.0597 25.4039C15.682 24.1186 16.6683 21.5318 16.6683 21.5318C16.4684 21.9023 16.0801 22.1525 15.6316 22.1525Z" fill="#DB291A"/>
<path d="M32.7951 22.1524C32.332 22.1524 31.9339 21.8843 31.7421 21.4976L23.6697 2.08503C23.6161 1.95504 23.5543 1.83155 23.4877 1.71294C23.4503 1.64957 23.4146 1.58782 23.374 1.52932C23.3268 1.45295 23.2748 1.37821 23.218 1.30834C23.1757 1.25472 23.1302 1.19785 23.0831 1.14585C22.9905 1.04023 22.8897 0.93949 22.7841 0.846871C22.7321 0.799749 22.6769 0.754253 22.6216 0.712006C22.5079 0.624262 22.3942 0.544642 22.2723 0.474772C22.2105 0.439025 22.1504 0.404902 22.0838 0.370779C21.8661 0.260287 21.6353 0.172543 21.3997 0.112422C21.3607 0.101048 21.3201 0.0912988 21.2795 0.0831744C21.2421 0.0734251 21.2015 0.0636758 21.1609 0.0571762C21.0585 0.0376776 20.9545 0.0230536 20.8521 0.0149292C20.8066 0.0100545 20.7595 0.00842961 20.7108 0.00517984C20.6035 -0.00131971 20.493 -0.00131971 20.3842 0.00517984C20.3371 0.00842961 20.2899 0.0100545 20.2444 0.0149292C20.1421 0.0230536 20.0397 0.0376776 19.9357 0.0571762C19.8951 0.0636758 19.8545 0.0734251 19.8138 0.0831744C19.7765 0.0912988 19.7358 0.101048 19.6952 0.112422C19.5994 0.136796 19.5051 0.166044 19.4109 0.200166C19.3572 0.21804 19.3052 0.237539 19.2516 0.260287C19.1688 0.29441 19.0891 0.331782 19.0128 0.370779C18.9461 0.404902 18.886 0.439025 18.8243 0.474772C18.7755 0.50402 18.7284 0.533268 18.6813 0.564141C18.6439 0.586889 18.6098 0.612887 18.574 0.637261C18.4977 0.690882 18.4229 0.749378 18.3531 0.811124C18.3287 0.830622 18.3059 0.851746 18.2816 0.872869C18.2491 0.900492 18.2198 0.928115 18.1906 0.957363C18.1305 1.01586 18.0736 1.07598 18.02 1.13773C17.9696 1.1946 17.9225 1.24984 17.8753 1.30834C17.8217 1.38146 17.7697 1.45295 17.7194 1.52932C17.6771 1.59432 17.6365 1.66256 17.5959 1.73243C17.5764 1.76818 17.5552 1.80718 17.5357 1.8478C17.4919 1.9323 17.4545 2.02004 17.4188 2.10941C17.4301 2.08179 17.4383 2.05416 17.4496 2.02816C17.4399 2.04604 17.4334 2.06554 17.4253 2.08503L15.8442 5.89052C16.0441 5.52005 16.4324 5.26981 16.8809 5.26981C17.3668 5.26981 17.7827 5.56229 17.9631 5.97989L20.5467 12.1935L26.0079 25.3274C26.549 26.629 27.8067 27.4105 29.1326 27.4105C29.5648 27.4105 30.0051 27.3277 30.4292 27.1522C31.2855 26.7963 31.9144 26.1317 32.2475 25.3404C32.2393 25.3599 33.8317 21.5317 33.8317 21.5317C33.6319 21.9022 33.2435 22.1524 32.7951 22.1524Z" fill="#DB291A"/>
</g>
</svg>
