<svg width="185" height="49" viewBox="0 0 185 49" fill="none" xmlns="http://www.w3.org/2000/svg">
<mask id="mask0_2_7077" style="mask-type:alpha" maskUnits="userSpaceOnUse" x="0" y="-1" width="185" height="50">
<rect y="-0.000183105" width="184.056" height="48.0441" fill="#D9D9D9"/>
</mask>
<g mask="url(#mask0_2_7077)">
<path d="M87.1334 40.6858H62.6724C59.9012 40.6858 57.6533 38.438 57.6533 35.6668C57.6533 32.8931 59.9012 30.6477 62.6724 30.6477H87.1334C89.9046 30.6477 92.1525 32.8931 92.1525 35.6668C92.1525 38.438 89.9046 40.6858 87.1334 40.6858Z" fill="#2C2321"/>
<path d="M29.7599 19.7485L25.925 10.5256C25.6573 9.90816 25.0375 9.47162 24.3187 9.47162C23.7447 9.47162 23.2406 9.74898 22.9223 10.1735L18.3711 21.116L22.2301 30.3944C22.5074 30.9902 23.1104 31.405 23.8122 31.405C24.4755 31.405 25.0447 31.0384 25.3462 30.4957L29.7864 19.8136L29.7599 19.7485Z" fill="#2C2321"/>
<path d="M111.324 36.8727C111.616 37.1983 111.761 37.618 111.761 38.1293C111.761 38.6406 111.568 39.0603 111.184 39.3859C110.801 39.7115 110.306 39.8755 109.701 39.8755H109.071C107.933 39.8755 106.891 39.5788 105.948 38.9831C105.005 38.3898 104.267 37.5818 103.732 36.5592C103.196 35.5341 102.928 34.3837 102.928 33.103V24.4806H100.396C99.9063 24.4806 99.5108 24.3407 99.2093 24.061C98.9054 23.7836 98.7559 23.4339 98.7559 23.0142C98.7559 22.5511 98.9054 22.1773 99.2093 21.8975C99.5108 21.6178 99.9063 21.4779 100.396 21.4779H102.928V19.3506C102.928 18.8393 103.092 18.4196 103.418 18.094C103.744 17.7684 104.163 17.6044 104.675 17.6044C105.186 17.6044 105.606 17.7684 105.931 18.094C106.257 18.4196 106.421 18.8393 106.421 19.3506V21.4779H109.387C109.874 21.4779 110.27 21.6178 110.574 21.8975C110.875 22.1773 111.027 22.5511 111.027 23.0142C111.027 23.4339 110.875 23.7836 110.574 24.061C110.27 24.3407 109.874 24.4806 109.387 24.4806H106.421V33.103C106.421 34.034 106.676 34.813 107.188 35.4425C107.699 36.0696 108.328 36.3831 109.071 36.3831H110.26C110.678 36.3831 111.032 36.5471 111.324 36.8727Z" fill="#2C2321"/>
<path d="M128.231 21.9168C129.688 22.7657 130.841 23.9307 131.687 25.4067C132.536 26.8852 132.963 28.5325 132.963 30.3462V38.1316C132.963 38.643 132.792 39.0674 132.454 39.4051C132.116 39.7428 131.694 39.9116 131.181 39.9116C130.672 39.9116 130.245 39.7428 129.907 39.4051C129.57 39.0674 129.403 38.643 129.403 38.1316V36.8389C128.586 37.8398 127.597 38.6188 126.437 39.1784C125.269 39.7355 124.013 40.0153 122.667 40.0153C120.991 40.0153 119.471 39.5956 118.111 38.7587C116.751 37.9218 115.68 36.7641 114.898 35.2857C114.117 33.8096 113.729 32.1623 113.729 30.3462C113.729 28.5325 114.146 26.8852 114.985 25.4067C115.822 23.9307 116.98 22.7657 118.461 21.9168C119.937 21.0678 121.569 20.6433 123.361 20.6433C125.153 20.6433 126.777 21.0678 128.231 21.9168ZM126.521 36.0189C127.464 35.4497 128.202 34.6706 128.737 33.6794C129.273 32.6905 129.541 31.5811 129.541 30.3462C129.541 29.1137 129.273 27.997 128.737 26.9961C128.202 25.9952 127.464 25.2089 126.521 24.6397C125.58 24.0681 124.526 23.7835 123.361 23.7835C122.201 23.7835 121.145 24.0681 120.204 24.6397C119.264 25.2089 118.516 25.9952 117.969 26.9961C117.423 27.997 117.149 29.1137 117.149 30.3462C117.149 31.5811 117.423 32.6905 117.969 33.6794C118.516 34.6706 119.264 35.4497 120.204 36.0189C121.145 36.5905 122.201 36.8751 123.361 36.8751C124.526 36.8751 125.58 36.5905 126.521 36.0189Z" fill="#2C2321"/>
<path d="M151.419 21.9168C152.895 22.7657 154.055 23.9307 154.892 25.4067C155.729 26.8852 156.149 28.5325 156.149 30.3462C156.149 32.1623 155.758 33.8096 154.979 35.2857C154.2 36.7641 153.129 37.9218 151.769 38.7587C150.406 39.5956 148.889 40.0153 147.213 40.0153C145.862 40.0153 144.605 39.7355 143.443 39.1784C142.278 38.6188 141.289 37.8398 140.474 36.8389V46.2644C140.474 46.7998 140.312 47.2292 139.987 47.5547C139.661 47.8804 139.229 48.0444 138.694 48.0444C138.183 48.0444 137.758 47.8804 137.421 47.5547C137.083 47.2292 136.914 46.7998 136.914 46.2644V30.3462C136.914 28.5325 137.339 26.8852 138.19 25.4067C139.039 23.9307 140.189 22.7657 141.644 21.9168C143.098 21.0678 144.721 20.6433 146.513 20.6433C148.305 20.6433 149.94 21.0678 151.419 21.9168ZM149.673 36.0189C150.616 35.4497 151.361 34.6706 151.906 33.6794C152.454 32.6905 152.726 31.5811 152.726 30.3462C152.726 29.1137 152.454 27.997 151.906 26.9961C151.361 25.9952 150.616 25.2089 149.673 24.6397C148.73 24.0681 147.678 23.7835 146.513 23.7835C145.351 23.7835 144.297 24.0681 143.354 24.6397C142.413 25.2089 141.673 25.9952 141.14 26.9961C140.602 27.997 140.336 29.1137 140.336 30.3462C140.336 31.5811 140.602 32.6905 141.14 33.6794C141.673 34.6706 142.413 35.4497 143.354 36.0189C144.297 36.5905 145.351 36.8751 146.513 36.8751C147.678 36.8751 148.73 36.5905 149.673 36.0189Z" fill="#2C2321"/>
<path d="M177.794 29.4803C177.797 29.4707 177.794 29.4586 177.794 29.4466C177.727 27.8451 177.382 26.4125 176.76 25.1438C176.063 23.7257 175.062 22.621 173.757 21.8275C172.457 21.0389 170.906 20.6433 169.116 20.6433C167.303 20.6433 165.68 21.0557 164.247 21.8806C162.814 22.7079 161.698 23.8583 160.897 25.3368C160.094 26.8128 159.693 28.4842 159.693 30.3486C159.693 32.2081 160.115 33.8699 160.964 35.3363C161.813 36.8027 162.995 37.9508 164.51 38.778C166.02 39.6029 167.732 40.0153 169.642 40.0153C170.708 40.0153 171.835 39.8175 173.009 39.422C174.184 39.024 175.168 38.5127 175.959 37.8856C176.33 37.6059 176.516 37.2586 176.516 36.8389C176.516 36.3975 176.309 35.9996 175.889 35.6523C175.631 35.4207 175.284 35.3025 174.842 35.3025C174.401 35.3025 174.015 35.4304 173.687 35.6884C173.2 36.0599 172.577 36.3734 171.82 36.6291C171.063 36.8871 170.337 37.0125 169.642 37.0125C167.872 37.0125 166.377 36.5157 165.154 35.51C163.933 34.509 163.193 33.1994 162.94 31.569H175.879C176.933 31.569 177.794 30.7152 177.804 29.6636V29.6443C177.804 29.5865 177.799 29.5334 177.794 29.4803ZM164.98 25.0401C166.037 24.1091 167.416 23.6437 169.116 23.6437C170.653 23.6437 171.897 24.1091 172.85 25.0401C173.701 25.8698 174.256 26.9503 174.514 28.2865C174.548 28.4432 174.574 28.6072 174.596 28.7737H162.973C163.253 27.2156 163.919 25.9711 164.98 25.0401Z" fill="#2C2321"/>
<path d="M181.564 8.92895C182.329 9.37755 182.934 9.98534 183.383 10.7499C183.831 11.5145 184.056 12.349 184.056 13.2558C184.056 14.1796 183.829 15.0261 183.378 15.7931C182.924 16.5625 182.314 17.1678 181.55 17.6092C180.785 18.0482 179.953 18.2676 179.058 18.2676C178.142 18.2676 177.302 18.0482 176.538 17.6092C175.773 17.1678 175.165 16.5649 174.717 15.8003C174.268 15.0358 174.044 14.1868 174.044 13.2558C174.044 12.349 174.266 11.5145 174.71 10.7499C175.156 9.98534 175.759 9.37755 176.523 8.92895C177.29 8.48034 178.134 8.25604 179.058 8.25604C179.963 8.25604 180.797 8.48034 181.564 8.92895ZM181.024 16.6782C181.634 16.3189 182.119 15.8365 182.473 15.2311C182.828 14.6233 183.006 13.9601 183.006 13.2438C183.006 12.525 182.826 11.8618 182.466 11.2564C182.109 10.6486 181.624 10.1662 181.019 9.80686C180.411 9.4475 179.748 9.26902 179.032 9.26902C178.313 9.26902 177.65 9.4475 177.044 9.80686C176.437 10.1662 175.954 10.6486 175.595 11.2564C175.235 11.8618 175.057 12.525 175.057 13.2438C175.057 13.9601 175.235 14.6233 175.59 15.2311C175.944 15.8365 176.424 16.3189 177.03 16.6782C177.638 17.0376 178.303 17.2161 179.032 17.2161C179.748 17.2161 180.414 17.0376 181.024 16.6782ZM181.135 15.3831C181.202 15.5037 181.236 15.6146 181.236 15.7183C181.236 15.8365 181.193 15.9354 181.108 16.0126C181.021 16.0897 180.908 16.1283 180.761 16.1283C180.66 16.1283 180.566 16.1066 180.479 16.0632C180.394 16.0198 180.329 15.9643 180.288 15.8968L179.109 13.9094H178.993H178.185V15.6411C178.185 15.7858 178.139 15.904 178.05 15.9933C177.961 16.0825 177.84 16.1283 177.686 16.1283C177.531 16.1283 177.406 16.0825 177.312 15.9933C177.218 15.904 177.172 15.7858 177.172 15.6411V10.6148C177.172 10.4701 177.223 10.3519 177.326 10.2627C177.428 10.1711 177.56 10.1276 177.724 10.1276H178.993C179.608 10.1276 180.115 10.3037 180.513 10.6534C180.908 11.0031 181.108 11.4517 181.108 11.9992C181.108 12.3586 181.019 12.6818 180.838 12.9664C180.66 13.2534 180.416 13.4825 180.107 13.6538L181.135 15.3831ZM178.185 13.0122H179.07C179.377 13.0122 179.623 12.9206 179.806 12.7373C179.989 12.554 180.083 12.308 180.083 11.9992C180.083 11.6905 179.989 11.4517 179.806 11.2805C179.623 11.1117 179.377 11.0248 179.07 11.0248H178.185V13.0122Z" fill="#2C2321"/>
<path d="M87.1334 25.3633H62.6724C59.9012 25.3633 57.6533 23.1155 57.6533 20.3443C57.6533 17.5706 59.9012 15.3252 62.6724 15.3252H87.1334C89.9046 15.3252 92.1525 17.5706 92.1525 20.3443C92.1525 23.1155 89.9046 25.3633 87.1334 25.3633Z" fill="#2C2321"/>
<path d="M69.0032 0.00268555H58.1643C54.6744 0.19081 51.7126 2.36389 50.3837 5.41247C50.3547 5.47759 50.3282 5.54512 50.2992 5.61024L43.8789 21.0582L47.7596 30.3968C48.0393 30.9902 48.6423 31.405 49.3442 31.405C49.9182 31.405 50.4223 31.13 50.743 30.7007L57.9569 13.3402L57.9593 13.3354L58.1136 12.964L59.0012 10.8319L59.3292 10.0408V10.0384L59.3582 9.96846C59.3654 9.94434 59.3799 9.91781 59.3919 9.88404C59.4185 9.81651 59.4571 9.72968 59.5029 9.62597C60.1179 8.21022 62.303 3.55052 65.055 1.78746C66.5238 0.84201 68.1542 0.091924 70.0065 0.00268555H69.0032Z" fill="#2C2321"/>
<path d="M87.1334 0.00268555H71.5962C69.7415 0.091924 68.1135 0.84201 66.6447 1.78746C63.8928 3.55052 61.7076 8.21022 61.0926 9.62597C61.0468 9.72968 61.0082 9.81651 60.9817 9.88404C60.9696 9.91781 60.9551 9.94434 60.9479 9.96846L60.9189 10.0384V10.0408L60.7598 10.4243C61.3507 10.1783 61.997 10.0408 62.6748 10.0408H87.1334C89.907 10.0408 92.1524 7.79538 92.1524 5.02175C92.1524 2.25053 89.907 0.00268555 87.1334 0.00268555Z" fill="#DB291A"/>
<path d="M23.2016 32.8809C22.4997 32.8809 21.8968 32.4661 21.6194 31.8703L9.65663 3.09453C8.59059 0.535553 5.65295 -0.677608 3.09398 0.386019C0.535004 1.45206 -0.678157 4.38969 0.385469 6.94867L13.1249 37.5937C13.928 39.5231 15.7948 40.6881 17.7629 40.6881C18.4044 40.6881 19.058 40.5626 19.6875 40.3022C20.9224 39.7884 21.8124 38.8237 22.3526 37.707C23.2764 35.7992 24.7404 31.9596 24.7404 31.9596C24.4437 32.5095 23.8673 32.8809 23.2016 32.8809Z" fill="#DB291A"/>
<path d="M48.678 32.8811C47.9906 32.8811 47.3997 32.4831 47.1151 31.9091L35.1331 3.09471C35.0535 2.90176 34.9618 2.71846 34.8629 2.5424C34.8075 2.44833 34.7544 2.35668 34.6941 2.26986C34.6242 2.1565 34.547 2.04556 34.4626 1.94185C34.3999 1.86225 34.3323 1.77784 34.2624 1.70066C34.1249 1.54389 33.9754 1.39436 33.8186 1.25688C33.7414 1.18694 33.6594 1.1194 33.5774 1.0567C33.4086 0.926456 33.2398 0.808276 33.0589 0.704566C32.9672 0.651505 32.878 0.600856 32.7791 0.550207C32.4559 0.386201 32.1134 0.255961 31.7637 0.166723C31.7058 0.14984 31.6455 0.135369 31.5852 0.12331C31.5297 0.108839 31.4695 0.0943674 31.4092 0.08472C31.2572 0.0557778 31.1029 0.0340711 30.9509 0.0220118C30.8834 0.0147763 30.8134 0.0123644 30.7411 0.00754073C30.5819 -0.00210668 30.4179 -0.00210668 30.2563 0.00754073C30.1863 0.0123644 30.1164 0.0147763 30.0489 0.0220118C29.8969 0.0340711 29.745 0.0557778 29.5906 0.08472C29.5303 0.0943674 29.47 0.108839 29.4097 0.12331C29.3543 0.135369 29.294 0.14984 29.2337 0.166723C29.0914 0.202901 28.9515 0.246314 28.8116 0.296963C28.732 0.323493 28.6548 0.352436 28.5752 0.386201C28.4522 0.43685 28.334 0.492323 28.2207 0.550207C28.1218 0.600856 28.0326 0.651505 27.9409 0.704566C27.8686 0.747979 27.7986 0.791393 27.7287 0.837218C27.6732 0.870984 27.6226 0.909573 27.5695 0.945751C27.4561 1.02534 27.3452 1.11217 27.2415 1.20382C27.2053 1.23276 27.1715 1.26412 27.1354 1.29547C27.0871 1.33647 27.0437 1.37747 27.0003 1.42089C26.9111 1.50771 26.8266 1.59695 26.747 1.6886C26.6723 1.77302 26.6023 1.85502 26.5324 1.94185C26.4528 2.05038 26.3756 2.1565 26.3009 2.26986C26.2381 2.36633 26.1779 2.46763 26.1176 2.57134C26.0886 2.6244 26.0573 2.68228 26.0283 2.74258C25.9632 2.868 25.9077 2.99824 25.8547 3.13089C25.8715 3.08989 25.8836 3.04889 25.9005 3.0103C25.886 3.03683 25.8764 3.06577 25.8643 3.09471L23.5176 8.74327C23.8142 8.19337 24.3907 7.82194 25.0563 7.82194C25.7775 7.82194 26.3949 8.25607 26.6626 8.87592L30.4975 18.0988L38.6037 37.5938C39.4069 39.5257 41.2736 40.6858 43.2417 40.6858C43.8833 40.6858 44.5369 40.5628 45.1664 40.3023C46.4374 39.7742 47.3708 38.7877 47.8652 37.6131C47.8532 37.6421 50.2168 31.9598 50.2168 31.9598C49.9201 32.5097 49.3437 32.8811 48.678 32.8811Z" fill="#DB291A"/>
</g>
</svg>
