<svg width="33" height="23" viewBox="0 0 33 23" fill="none" xmlns="http://www.w3.org/2000/svg">
<path d="M32.4827 5.37699C32.4827 2.64623 30.2661 0.429602 27.5343 0.429602C27.5343 0.429602 23.0166 0 16.5636 0C10.1106 0 5.16219 0.429602 5.16219 0.429602C2.43044 0.429602 0.213807 2.64623 0.213807 5.37699C0.213807 5.37699 0 8.14355 0 11.466C0 14.7885 0.213807 17.4237 0.213807 17.4237C0.213807 20.1555 2.43044 22.3711 5.16219 22.3711C5.16219 22.3711 11.4949 22.8017 16.2414 22.8017C20.9859 22.8017 27.5343 22.3711 27.5343 22.3711C30.2661 22.3711 32.4827 20.1555 32.4827 17.4237C32.4827 17.4237 32.6975 14.7885 32.6975 11.466C32.6975 8.14355 32.4827 5.37699 32.4827 5.37699ZM13.6588 16.3487V6.45298L21.8342 11.292L13.6588 16.3487Z" fill="#919191"/>
</svg>
